<?xml version="1.0" standalone="no"?>
<!DOCTYPE svg PUBLIC "-//W3C//DTD SVG 20010904//EN"
 "http://www.w3.org/TR/2001/REC-SVG-20010904/DTD/svg10.dtd">
<svg version="1.0" xmlns="http://www.w3.org/2000/svg"
 width="300.000000pt" height="76.000000pt" viewBox="0 0 300.000000 76.000000"
 preserveAspectRatio="xMidYMid meet">
<metadata>
Created by potrace 1.10, written by Peter Selinger 2001-2011
</metadata>
<g transform="translate(0.000000,76.000000) scale(0.050000,-0.050000)"
fill="#000000" stroke="none">
<path d="M200 1290 c0 -26 149 -30 1220 -30 1071 0 1220 4 1220 30 0 26 -149
30 -1220 30 -1071 0 -1220 -4 -1220 -30z"/>
<path d="M2760 740 l0 -560 1531 5 1531 5 4 555 4 555 -1535 0 -1535 0 0 -560z
m583 365 c32 -32 -2 -130 -40 -114 -265 109 -367 -62 -112 -185 218 -105 271
-236 151 -371 -64 -71 -384 -101 -444 -41 -36 36 -5 133 38 115 102 -44 282
-35 305 16 35 76 -4 126 -136 175 -347 129 -277 457 92 433 70 -5 135 -17 146
-28z m317 -129 l0 -156 159 0 159 0 6 155 6 155 66 0 66 0 0 -380 0 -380 -72
-6 -73 -7 6 172 7 171 -165 0 -165 0 0 -170 0 -170 -70 0 -70 0 0 386 0 386
70 0 70 0 0 -156z m1149 124 c168 -82 241 -323 162 -531 -105 -275 -536 -284
-655 -14 -158 356 160 708 493 545z m790 -17 c228 -117 111 -422 -169 -439
l-130 -9 0 -139 0 -138 -70 6 c-39 3 -71 13 -70 21 0 8 0 176 0 374 l0 358 65
10 c114 16 301 -6 374 -44z"/>
<path d="M4522 987 c-95 -66 -133 -269 -72 -387 119 -229 410 -123 410 150 0
214 -185 344 -338 237z"/>
<path d="M5300 888 l0 -138 95 7 c238 18 235 223 -4 256 l-91 12 0 -137z"/>
<path d="M209 1122 c-36 -35 -6 -762 31 -762 37 0 40 13 40 180 l0 180 160 0
c147 0 160 3 160 40 0 37 -13 40 -160 40 l-160 0 0 130 0 130 180 0 c161 0
180 4 180 36 0 34 -398 58 -431 26z"/>
<path d="M897 1007 c-61 -133 -178 -431 -222 -562 -12 -36 -16 -71 -9 -77 29
-30 72 16 104 111 l33 101 185 0 185 0 34 -110 c27 -84 44 -110 74 -110 52 0
51 2 -39 242 -218 583 -248 618 -345 405z m172 -174 c39 -96 71 -179 71 -184
0 -5 -67 -9 -150 -9 -84 0 -150 9 -150 19 0 20 114 315 134 347 15 24 18 18
95 -173z"/>
<path d="M1439 1130 c-19 -270 3 -760 35 -760 33 0 36 23 35 305 -1 168 4 305
12 305 14 0 173 -220 338 -466 57 -86 114 -153 127 -149 43 15 33 763 -10 771
-32 6 -35 -22 -40 -299 l-6 -305 -90 138 c-187 289 -396 528 -401 460z"/>
<path d="M2256 1105 c-173 -107 -118 -272 128 -382 299 -134 155 -403 -148
-277 -71 30 -96 20 -96 -38 0 -23 119 -50 219 -51 346 -1 392 275 72 429 -175
84 -217 141 -165 221 42 64 150 84 243 45 66 -28 72 -27 91 7 40 76 -237 113
-344 46z"/>
<path d="M200 210 c0 -26 149 -30 1220 -30 1071 0 1220 4 1220 30 0 26 -149
30 -1220 30 -1071 0 -1220 -4 -1220 -30z"/>
</g>
</svg>
